<svg width="363" height="39" viewBox="0 0 363 39" fill="none" xmlns="http://www.w3.org/2000/svg">
<path d="M0 1.9V0.3H8.1L15.8 12L23.7 0.2H31.8V1.8H24.8L16.8 13.6H15L7.2 1.9H0ZM31.7 10V11.6H31L22 24.4V38.4H9.7V24.4L0.7 11.6H0V10H1.6L11.3 23.9V36.8H20.6V23.9L30.2 10H31.7ZM77.9 19.5C77.9 23.7 77 27.2 75.3 30.2C73.6 33.1 71 35.3 67.7 36.8C64.4 38.3 60.5 39 55.9 39C51.3 39 47.4 38.3 44.1 36.8C40.8 35.3 38.3 33.1 36.7 30.2C35 27.3 34.2 23.7 34.2 19.5C34.2 16.3 34.7 13.5 35.7 11.1C36.7 8.7 38.1 6.6 39.9 5C41.8 3.3 44 2.1 46.8 1.2C49.4 0.4 52.5 0 55.9 0C60.5 0 64.4 0.8 67.7 2.3C71 3.8 73.5 6 75.2 8.9C76.9 11.8 77.9 15.4 77.9 19.5ZM76.3 19.5C76.2 15.7 75.4 12.4 73.8 9.7C72.2 7 69.9 5 66.8 3.6C63.8 2.2 60.1 1.5 55.9 1.5C52.7 1.5 49.9 1.9 47.4 2.7C44.9 3.5 42.8 4.6 41.1 6.2C39.4 7.7 38.1 9.6 37.2 11.8C36.3 14 35.8 16.6 35.8 19.5C35.9 23.4 36.7 26.6 38.2 29.3C39.7 32 42 34 45 35.4C48 36.8 51.6 37.5 55.9 37.5C60.2 37.5 63.7 36.8 66.8 35.5C69.8 34.1 72.2 32.1 73.8 29.4C75.4 26.6 76.2 23.4 76.3 19.5ZM46.7 19.6C46.7 12.9 49.7 9.6 55.7 9.6C59.5 9.6 62 10.6 63.2 12.6C64.4 14.6 65 16.9 65.2 19.6C65.1 21.5 64.8 23.1 64.5 24.4C64.2 25.7 63.3 26.9 62 28C60.6 29 58.6 29.6 55.8 29.6C52.2 29.6 49.9 28.6 48.7 26.6C47.3 24.6 46.7 22.3 46.7 19.6ZM48.4 19.7C48.4 21.9 48.9 23.9 49.9 25.5C50.9 27.2 52.8 28 55.8 28C58 28 59.7 27.6 60.9 26.7C62 25.8 62.7 24.8 63 23.7C63.3 22.6 63.5 21.2 63.6 19.7C63.5 17.5 63 15.5 62 13.9C61 12.2 59 11.4 55.9 11.4C50.9 11.4 48.4 14.1 48.4 19.7ZM82.6 36.8H104.4C108.6 36.7 111.6 36.3 113.4 35.6C115.2 34.9 116.7 34 117.9 32.9C119.1 31.8 120.2 30.2 121.2 28C122.2 25.8 122.8 23 122.9 19.4C122.8 16 122.5 13.8 122.1 12.8C121.7 11.8 121.3 10.7 120.7 9.6C120.1 8.5 119.2 7.3 118 6.1C116.8 4.9 115.1 3.9 112.9 3.1C110.7 2.3 108.1 1.9 105 2H82.6V0.3H105.1C108.1 0.3 110.8 0.7 113.2 1.4C115.5 2.2 117.5 3.2 119.1 4.7C120.7 6.1 122 8 123.1 10.3C124.2 12.6 124.7 15.6 124.7 19.3C124.5 22.9 123.9 25.8 123 28.3C122 30.7 120.7 32.6 119.2 34C117.6 35.4 115.6 36.5 113.3 37.3C111 38.1 108.1 38.4 104.6 38.4H82.6V36.8ZM82.6 28.6V10H84.2V28.6H82.6ZM94.6 9H102.6C104.4 9 105.9 9.4 107.1 10.1C108.2 10.8 109.2 11.8 109.9 13.1C110.6 14.4 111 16.4 111.1 19.1C110.9 22.1 110.4 24.1 109.7 25.3C109 26.5 108.1 27.4 107 28.1C105.9 28.8 104.4 29.2 102.6 29.2H94.6V9ZM96.2 10.6V27.7H102.6C104.4 27.6 105.7 27.3 106.6 26.6C107.4 25.9 108.1 25.2 108.5 24.4C108.9 23.6 109.3 21.9 109.5 19.1C109.3 16.8 109 15.1 108.6 14.1C108.1 13.1 107.5 12.3 106.6 11.6C105.7 10.9 104.4 10.5 102.7 10.5H96.2V10.6ZM165.9 27H166.2V28.6H164.6L156 1.9H139.4L130.1 28.6H128.5V27H128.8L138.1 0.3H157.3L165.9 27ZM128.5 36.8H138.3L140.7 29.9H154.1L156.5 36.8H166.3V38.4H155.5L153.1 31.5H141.8L139.4 38.4H128.6V36.8H128.5ZM147.7 8.2L153.1 23.8H141.9L147.7 8.2ZM144.3 22.2H150.6L147.7 13.7L144.3 22.2ZM198.8 0.3V1.9H179.6C175.9 2 173.6 3.9 172.7 7.8C171.8 11.6 174.3 16.3 180.2 21.9C184.6 26.3 183.5 28.5 176.8 28.7H170.4V27H176.8C181.8 27.1 182.4 25.8 178.7 22.8C172.6 17.2 170 12 170.9 7.3C171.8 2.6 174.7 0.2 179.5 0.2H198.8V0.3ZM198.8 11.6H191.1C186.6 11.5 185.9 12.7 189.1 15.3C194.8 20.3 197.6 25.1 197.5 29.9C197.4 34.6 194.6 37.4 189.1 38.3H170.4V36.7H189.1C193.7 35.7 196 33.2 195.9 29.1C195.8 25 192.7 20.4 186.6 15.3C183.8 11.6 185.3 9.9 191.1 10H198.8V11.6ZM203.9 38.4V36.8H216.1V24.2H229.6C232.6 23.6 234.9 22.6 236.5 21.3C238.1 20 239.1 18.4 239.7 16.7C240.2 14.9 240.3 13.3 240 11.7C239.7 10.1 239.3 8.8 238.7 7.6C238.1 6.4 237.1 5.3 235.5 4.1C233.9 2.9 231.6 2.2 228.7 1.8H203.9V0.3H228.7C231.8 0.7 234.2 1.5 236.1 2.7C238 3.9 239.3 5.4 240.1 7.1C240.9 8.8 241.3 10.3 241.5 11.5C241.7 12.7 241.7 13.9 241.6 15.1C241.5 16.3 241.3 17.5 240.8 18.7C240.3 19.9 239.2 21.3 237.2 22.8C235.3 24.3 232.7 25.4 229.6 25.8H217.7V38.4H203.9ZM205.5 10V28.6H203.9V10H205.5ZM217 9.1H227.7C228.2 9.1 228.8 9.4 229.4 9.9C230 10.4 230.5 11.6 230.6 13.3C230.5 15.1 230.2 16.2 229.5 16.7C228.8 17.2 228.2 17.4 227.7 17.4H217V9.1ZM218.6 10.7V16H226.7C227.1 16 227.6 15.9 228.1 15.6C228.6 15.3 228.9 14.6 228.9 13.4C228.8 12.3 228.5 11.6 228 11.2C227.5 10.8 227 10.7 226.7 10.7H218.6ZM246.1 1.9V0.3H278.8V1.9H246.1ZM247.7 28.6H246.1V10H247.7V28.6ZM280.4 36.8V38.4H246.1V36.8H280.4ZM278.8 10V11.6H258.5V16H271.6V22.6H258.5V27H280.4V28.6H256.9V21.1H270V17.6H256.9V10H278.8ZM321.6 27H321.9V28.6H320.3L311.7 1.9H295.1L285.8 28.6H284.2V27H284.5L293.8 0.3H313L321.6 27ZM284.2 36.8H294L296.4 29.9H309.8L312.2 36.8H322V38.4H311.2L308.8 31.5H297.5L295.1 38.4H284.3V36.8H284.2ZM303.3 8.2L308.7 23.8H297.5L303.3 8.2ZM300 22.2H306.3L303.4 13.7L300 22.2ZM326.8 1.9V0.3H339.2V12.7L347.9 0.3H360.3L346.1 19.3L352.4 27H362.2V28.6H351.6L344.5 20V18.7L357.2 1.9H348.7L340.3 14.3H337.6V1.9H326.8ZM328.3 10V28.6H326.7V10H328.3ZM326.8 38.4V36.8H337.6V25.4H339.8L349.6 36.7H362.3V38.3H348.9L339.2 27V38.3H326.8V38.4Z" fill="url(#paint0_linear)"/>
<defs>
<linearGradient id="paint0_linear" x1="0" y1="19.5117" x2="362.195" y2="19.5117" gradientUnits="userSpaceOnUse">
<stop stop-color="#00FFFF"/>
<stop offset="0.2038" stop-color="#00E9FF"/>
<stop offset="0.6239" stop-color="#00B2FF"/>
<stop offset="1" stop-color="#007CFF"/>
</linearGradient>
</defs>
</svg>
