<svg width="543" height="38" viewBox="0 0 543 38" fill="none" xmlns="http://www.w3.org/2000/svg">
<path
        d="M0 2.70002V1.30002H7.5L14.7 12.2L22 1.30002H29.5V2.80002H23L15.6 13.7H14L6.7 2.70002H0ZM29.4 10.3V11.8H28.8L20.5 23.6V36.5H8.9V23.6L0.6 11.8H0V10.3H1.5L10.5 23.1V35H19V23.2L27.9 10.4H29.4V10.3ZM72.3 19.1C72.3 23 71.5 26.2 69.9 29C68.3 31.7 66 33.8 62.9 35.1C59.8 36.4 56.2 37.2 52 37.2C47.8 37.2 44.1 36.5 41.1 35.1C38.1 33.7 35.8 31.7 34.2 29C32.6 26.3 31.9 23 31.9 19.1C31.9 16.2 32.3 13.6 33.2 11.3C34.1 9.00002 35.4 7.20002 37.1 5.60002C38.8 4.10002 40.9 2.90002 43.4 2.10002C45.9 1.40002 48.7 1.00002 51.9 1.00002C56.1 1.00002 59.8 1.70002 62.8 3.10002C65.9 4.50002 68.2 6.50002 69.8 9.30002C71.5 12 72.3 15.2 72.3 19.1ZM70.8 19.1C70.7 15.6 70 12.5 68.5 10C67 7.50002 64.8 5.70002 62 4.40002C59.2 3.10002 55.8 2.50002 51.9 2.50002C49 2.50002 46.3 2.90002 44 3.60002C41.7 4.30002 39.7 5.40002 38.1 6.80002C36.5 8.20002 35.3 9.90002 34.5 12C33.7 14.1 33.2 16.4 33.2 19.1C33.3 22.7 34 25.7 35.5 28.2C36.9 30.7 39.1 32.5 41.9 33.8C44.7 35.1 48.1 35.7 52 35.7C55.9 35.7 59.3 35.1 62.1 33.8C64.9 32.5 67.1 30.7 68.6 28.2C70 25.6 70.7 22.6 70.8 19.1ZM43.4 19.1C43.4 12.9 46.2 9.80002 51.7 9.80002C55.2 9.80002 57.5 10.7 58.6 12.6C59.7 14.4 60.3 16.6 60.4 19.1C60.3 20.8 60 22.3 59.7 23.6C59.4 24.8 58.6 26 57.3 26.9C56 27.9 54.1 28.4 51.6 28.4C48.3 28.4 46.1 27.5 45 25.6C44 23.8 43.4 21.6 43.4 19.1ZM45 19.2C45 21.3 45.5 23.1 46.4 24.6C47.3 26.1 49.1 26.9 51.8 26.9C53.9 26.9 55.4 26.5 56.5 25.7C57.5 24.9 58.2 24 58.5 22.9C58.8 21.9 58.9 20.6 59 19.2C58.9 17.1 58.4 15.3 57.5 13.8C56.6 12.3 54.7 11.5 51.8 11.5C47.3 11.5 45 14.1 45 19.2ZM87.7 1.30002V22.2C87.6 24.6 88.1 26.2 89.1 27.2C90.1 28.2 91.7 28.6 93.8 28.7C95.5 28.7 97 28.2 98.1 27.2C99.3 26.2 99.8 24.6 99.7 22.3V1.30002H111.2V22C111.2 24.9 110.7 27.3 109.7 29C108.8 30.8 107.6 32.2 106.2 33.4C104.8 34.6 103 35.5 100.9 36.1C98.8 36.8 96.4 37.1 93.8 37.2C91.6 37.2 89.4 36.9 87.2 36.3C85 35.7 83 34.9 81.3 33.7C79.6 32.5 78.3 31 77.4 29.2C76.5 27.4 76 25 76 22V1.30002H87.7ZM77.7 2.70002V22C77.9 24.9 78.3 27.1 79 28.5C79.7 29.9 80.8 31.2 82.3 32.3C83.8 33.4 85.6 34.2 87.6 34.8C89.7 35.3 91.8 35.6 93.8 35.7C96.2 35.6 98.5 35.2 100.5 34.6C102.5 34 104.1 33.1 105.4 32.1C106.6 31 107.6 29.8 108.4 28.3C109.2 26.9 109.6 24.7 109.7 22V2.70002H101.2V22.1C101.3 24.6 100.8 26.5 99.6 27.7C98.4 29 96.5 29.7 93.8 30C91 29.9 89 29.2 87.8 27.9C86.7 26.6 86.1 24.7 86.2 22V2.70002H77.7ZM185.1 1.30002V11.8H178C173.8 11.7 173.2 12.8 176.1 15.3C181.4 19.9 184 24.4 183.9 28.8C183.8 33.2 181.2 35.8 176.1 36.6H143.3V26H164.7C169.3 26.1 169.9 24.8 166.5 22.1C160.8 16.9 158.4 12.1 159.3 7.70002C160.1 3.30002 162.8 1.20002 167.3 1.20002H185.1V1.30002ZM144.9 27.5V35.1H176.2C180.5 34.2 182.6 31.8 182.5 28.1C182.4 24.3 179.5 20.1 173.9 15.3C171.3 11.9 172.7 10.3 178.1 10.4H183.7V2.70002H167.4C164 2.80002 161.9 4.60002 161 8.10002C160.1 11.6 162.4 16 168 21.1C172.1 25.1 171.1 27.2 164.9 27.4H144.9V27.5ZM189.6 36.5V1.30002H212.6C215.4 1.70002 217.7 2.40002 219.5 3.50002C221.2 4.60002 222.5 6.00002 223.2 7.60002C223.9 9.20002 224.3 10.6 224.5 11.7C224.6 12.8 224.7 13.9 224.6 15C224.5 16.1 224.3 17.2 223.9 18.3C223.5 19.4 222.4 20.7 220.6 22.1C218.8 23.5 216.4 24.5 213.5 24.9H202.5V36.5H189.6ZM191.1 35.1H200.9V23.4H213.4C216.2 22.8 218.3 21.9 219.7 20.7C221.2 19.5 222.1 18.1 222.6 16.4C223.1 14.8 223.2 13.2 222.9 11.8C222.6 10.4 222.2 9.10002 221.7 8.00002C221.2 6.90002 220.2 5.90002 218.7 4.80002C217.2 3.70002 215.1 3.00002 212.4 2.70002H190.9V35.1H191.1ZM201.8 9.40002H211.7C212.1 9.40002 212.7 9.70002 213.3 10.2C213.9 10.7 214.3 11.8 214.4 13.4C214.3 15.1 214 16.1 213.4 16.6C212.8 17 212.2 17.2 211.7 17.2H201.8V9.40002ZM203.3 10.9V15.9H210.8C211.2 15.9 211.6 15.8 212.1 15.5C212.6 15.2 212.8 14.5 212.9 13.4C212.8 12.4 212.5 11.7 212 11.4C211.5 11.1 211.1 10.9 210.8 10.9H203.3ZM227.9 36.5V1.30002H258.1V11.8H239.3V15.9H251.4V22H239.3V26H259.6V36.5H227.9ZM229.3 2.70002V35H258.1V27.4H237.8V20.5H250V17.2H237.9V10.2H256.7V2.70002H229.3ZM262.1 36.5L273.7 1.20002H291.2L303 36.5H289.7L287.5 30.2H277L274.8 36.5H262.1ZM264.2 35.1H273.8L276.1 28.8H288.7L291 35.1H301L290.3 2.70002H275L264.2 35.1ZM282.5 8.60002L287.5 23.1H277.1L282.5 8.60002ZM279.4 21.6H285.2L282.5 13.7L279.4 21.6ZM317 1.30002V12.8L325 1.30002H336.5L323.4 18.9L329.3 26H353.4V36.5H325.9L317 26V36.5H305.5V1.30002H317ZM306.9 2.70002V35H315.4V24.6H317.4L326.5 35.1H351.8V27.5H328.5L321.9 19.5V18.3L333.7 2.70002H325.8L318 14.2H315.5V2.70002H306.9ZM386 2.70002V1.30002H393.5L400.7 12.2L408 1.30002H415.5V2.80002H409L401.6 13.7H400L392.8 2.80002H386V2.70002ZM415.4 10.3V11.8H414.8L406.5 23.6V36.5H395V23.6L386.7 11.8H386V10.3H387.5L396.5 23.1V35H405.1V23.2L414 10.4H415.4V10.3ZM458.2 19.1C458.2 23 457.4 26.2 455.8 29C454.2 31.8 451.9 33.8 448.8 35.1C445.7 36.5 442.1 37.2 437.9 37.2C433.7 37.2 430 36.5 427 35.1C424 33.7 421.7 31.7 420.1 29C418.5 26.3 417.8 23 417.8 19.1C417.8 16.2 418.2 13.6 419.1 11.3C420 9.00002 421.3 7.20002 423 5.60002C424.7 4.10002 426.8 2.90002 429.3 2.10002C431.8 1.30002 434.6 0.900024 437.8 0.900024C442 0.900024 445.7 1.60002 448.7 3.00002C451.8 4.40002 454.1 6.40002 455.7 9.20002C457.3 12 458.2 15.2 458.2 19.1ZM456.8 19.1C456.7 15.6 456 12.5 454.5 10C453 7.50002 450.9 5.60002 448 4.30002C445.2 3.00002 441.8 2.40002 437.9 2.40002C435 2.40002 432.3 2.80002 430 3.50002C427.7 4.20002 425.7 5.30002 424.1 6.70002C422.5 8.10002 421.3 9.80002 420.5 11.9C419.7 14 419.2 16.3 419.2 19C419.3 22.6 420 25.6 421.5 28.1C422.9 30.6 425.1 32.4 427.9 33.7C430.7 35 434.1 35.6 438 35.6C441.9 35.6 445.3 35 448.1 33.7C450.9 32.4 453.1 30.6 454.6 28.1C456.1 25.6 456.7 22.6 456.8 19.1ZM429.4 19.1C429.4 12.9 432.2 9.80002 437.7 9.80002C441.2 9.80002 443.5 10.7 444.6 12.6C445.7 14.4 446.3 16.6 446.4 19.1C446.3 20.8 446 22.3 445.7 23.6C445.4 24.8 444.6 26 443.3 26.9C442 27.9 440.1 28.4 437.6 28.4C434.3 28.4 432.1 27.5 431 25.6C429.9 23.8 429.4 21.6 429.4 19.1ZM431 19.2C431 21.3 431.5 23.1 432.4 24.6C433.3 26.1 435.1 26.9 437.8 26.9C439.9 26.9 441.4 26.5 442.5 25.7C443.5 24.9 444.2 24 444.5 22.9C444.8 21.9 444.9 20.6 445 19.2C444.9 17.1 444.4 15.3 443.5 13.8C442.6 12.3 440.7 11.5 437.8 11.5C433.2 11.5 431 14.1 431 19.2ZM462.5 36.5V1.30002H483.3C486.1 1.30002 488.6 1.70002 490.8 2.40002C493 3.10002 494.8 4.10002 496.2 5.40002C497.7 6.70002 498.9 8.50003 499.9 10.6C500.9 12.8 501.4 15.5 501.4 18.9C501.2 22.2 500.7 25 499.8 27.2C498.9 29.4 497.7 31.2 496.2 32.5C494.7 33.8 492.9 34.8 490.8 35.5C488.7 36.2 486 36.5 482.8 36.5H462.5ZM463.9 35.1H482.7C486.6 35 489.4 34.6 491.1 34C492.8 33.3 494.2 32.5 495.3 31.5C496.4 30.5 497.4 29 498.4 27C499.3 25 499.9 22.4 500 19.1C499.9 15.9 499.6 13.9 499.3 13C499 12.1 498.5 11.1 498 10C497.5 8.90002 496.6 7.90002 495.5 6.80002C494.4 5.70002 492.8 4.80002 490.7 4.00002C488.7 3.30002 486.2 2.90002 483.4 3.00002H464.1V35.1H463.9ZM473.6 9.30002H481C482.7 9.30002 484.1 9.60003 485.2 10.3C486.3 11 487.1 11.9 487.8 13.1C488.5 14.3 488.8 16.2 488.9 18.7C488.7 21.5 488.3 23.4 487.6 24.4C487 25.5 486.1 26.3 485.1 27C484.1 27.7 482.7 28 481 28H473.6V9.30002ZM475 10.8V26.7H480.9C482.6 26.7 483.8 26.3 484.6 25.7C485.4 25.1 486 24.4 486.4 23.7C486.8 23 487.1 21.3 487.3 18.8C487.2 16.7 486.9 15.1 486.4 14.2C485.9 13.3 485.3 12.5 484.5 11.9C483.7 11.3 482.5 10.9 480.8 10.9H475V10.8ZM501.9 36.5L513.5 1.20002H531L542.8 36.5H529.5L527.3 30.2H516.8L514.6 36.5H501.9ZM503.9 35.1H513.5L515.8 28.8H528.4L530.7 35.1H540.8L530 2.70002H514.7L503.9 35.1ZM522.3 8.60002L527.3 23.1H516.9L522.3 8.60002ZM519.2 21.6H525L522.3 13.7L519.2 21.6Z"
        fill="url(#paint0_linear)"
    />
<defs>
<linearGradient id="paint0_linear" x1="107.079" y1="89.1921" x2="474.08" y2="-67.8082" gradientUnits="userSpaceOnUse">
<stop stop-color="#00FFFF" />
<stop offset="0.2038" stop-color="#00E9FF" />
<stop offset="0.6239" stop-color="#00B2FF" />
<stop offset="1" stop-color="#007CFF" />
</linearGradient>
</defs>
</svg>
